<svg xmlns="http://www.w3.org/2000/svg" xmlns:xlink="http://www.w3.org/1999/xlink" width="54.136" height="58.318" viewBox="0 0 54.136 58.318">
  <defs>
    <linearGradient id="linear-gradient" x1="0.5" x2="0.5" y2="1" gradientUnits="objectBoundingBox">
      <stop offset="0" stop-color="#1a73e8"/>
      <stop offset="1" stop-color="#1a73e8"/>
    </linearGradient>
    <linearGradient id="linear-gradient-2" x1="0.5" y1="0.975" x2="0.487" y2="0.012" gradientUnits="objectBoundingBox">
      <stop offset="0" stop-color="#1a73e8"/>
      <stop offset="1" stop-color="#1a73e8"/>
    </linearGradient>
  </defs>
  <g id="Logo" transform="translate(-173.474 -34.273)">
    <g id="Patient_App_Logo" data-name="Patient App Logo" transform="translate(173.475 34.273)">
      <g id="Layer_1" data-name="Layer 1">
        <g id="_Group_" data-name="&lt;Group&gt;">
          <g id="_Group_2" data-name="&lt;Group&gt;">
            <g id="_Group_3" data-name="&lt;Group&gt;">
              <g id="_Group_4" data-name="&lt;Group&gt;">
                <path id="Path_6" data-name="Path 6" d="M28.249,58.239a12.525,12.525,0,0,1-6.7-2.091C17.685,53.7,13.683,51.364,9.66,49.206a11.837,11.837,0,0,1-6.655-11.69c.2-4.6.237-9.272.116-13.852a12.048,12.048,0,0,1,6.8-11.669c4.068-2.157,8.108-4.49,12.013-6.918A12.662,12.662,0,0,1,28.655,3a12.525,12.525,0,0,1,6.7,2.091c3.864,2.442,7.866,4.77,11.889,6.934a11.8,11.8,0,0,1,6.636,11.7c-.194,4.6-.237,9.272-.116,13.852a12,12,0,0,1-6.8,11.664c-4.059,2.16-8.1,4.481-12,6.92a12.662,12.662,0,0,1-6.712,2.077Z" transform="translate(-1.42 -1.459)" fill="url(#linear-gradient)"/>
                <g id="_Group_5" data-name="&lt;Group&gt;" transform="translate(14.736 12.764)">
                  <path id="_Path_" data-name="&lt;Path&gt;" d="M44.635,57.146l5.853-.913a3.89,3.89,0,0,0,3.179-4.481l-3.6-23.207a3.978,3.978,0,0,0-1.546-2.575,3.748,3.748,0,0,0-2.845-.733l-2.134.33a1.623,1.623,0,0,0-.128-.145,2.421,2.421,0,1,0-1.66,4.2h.088a2.39,2.39,0,0,0,2.134-1.479l2.06-.325a1.15,1.15,0,0,1,.9.237,1.384,1.384,0,0,1,.514.882l3.606,23.207a1.278,1.278,0,0,1-.993,1.5L36.141,55.79a1.278,1.278,0,0,1-1.4-1.128l-3.6-23.2a1.278,1.278,0,0,1,.993-1.5l1.207-.185a2.433,2.433,0,0,0,.166.185,2.406,2.406,0,0,0,1.66.647h.09A2.421,2.421,0,1,0,32.966,27.2l-1.23.192a3.89,3.89,0,0,0-3.172,4.481l3.606,23.2a3.926,3.926,0,0,0,3.805,3.369h0a3.772,3.772,0,0,0,.545-.045l5.837-.906a22.667,22.667,0,0,0,7.231,7.672,9.483,9.483,0,0,0,3-.737,19.715,19.715,0,0,1-7.966-7.283Z" transform="translate(-28.509 -24.78)" fill="#fff"/>
                  <path id="_Path_2" data-name="&lt;Path&gt;" d="M54.433,73.48h0a1.974,1.974,0,1,0,0,3.947h0a1.974,1.974,0,1,0,0-3.947Z" transform="translate(-40.13 -48.393)" fill="#fff"/>
                  <path id="_Path_3" data-name="&lt;Path&gt;" d="M43.535,50.833l-2.608.351.128.963,3.224-.439.417-1.422,2.639,5.441v-6.4l2.01,5.5.917-4.3,2.323-.36-.149-.948-2.982.462-.356,1.66-2.726-7.454v7.65l-1.9-3.9Z" transform="translate(-34.545 -34.039)" fill="#fff"/>
                </g>
                <path id="Path_7" data-name="Path 7" d="M27.2,3.082A10.955,10.955,0,0,1,33.1,4.936q5.868,3.7,11.984,6.989A10.327,10.327,0,0,1,50.9,22.188q-.3,6.98-.116,13.961a10.512,10.512,0,0,1-5.958,10.256q-6.183,3.276-12.091,6.97a11.1,11.1,0,0,1-5.927,1.844,10.955,10.955,0,0,1-5.894-1.854q-5.863-3.7-11.972-7.01A10.374,10.374,0,0,1,3.109,36.114q.308-6.98.128-13.971A10.484,10.484,0,0,1,9.2,11.9q6.183-3.276,12.091-6.97a11.1,11.1,0,0,1,5.9-1.844M27.2,0h0a14.184,14.184,0,0,0-7.534,2.3C15.79,4.725,11.781,7.032,7.732,9.172a13.615,13.615,0,0,0-7.6,13.07c.119,4.545.083,9.18-.128,13.75a13.447,13.447,0,0,0,7.46,13.123c3.992,2.148,7.963,4.462,11.8,6.875A14.044,14.044,0,0,0,26.8,58.318,14.184,14.184,0,0,0,34.334,56c3.886-2.425,7.916-4.723,11.918-6.861a13.592,13.592,0,0,0,7.615-13.07c-.119-4.559-.083-9.187.116-13.75A13.423,13.423,0,0,0,46.546,9.2c-3.988-2.14-7.961-4.458-11.8-6.874A14.037,14.037,0,0,0,27.205,0Z" transform="translate(0.037)" fill="url(#linear-gradient-2)"/>
              </g>
            </g>
          </g>
        </g>
      </g>
    </g>
  </g>
</svg>
